<svg width="144" height="144" viewBox="0 0 144 144" fill="none" xmlns="http://www.w3.org/2000/svg">
<g filter="url(#filter0_d_1513_3896)">
<mask id="mask0_1513_3896" style="mask-type:alpha" maskUnits="userSpaceOnUse" x="11" y="9" width="122" height="126">
<path d="M68.9558 9.57537C70.935 8.9323 73.067 8.9323 75.0461 9.57537L106.23 19.7075C108.209 20.3506 109.934 21.6037 111.157 23.2873L130.429 49.8136C131.653 51.4972 132.311 53.5248 132.311 55.6059V88.3941C132.311 90.4752 131.653 92.5028 130.429 94.1864L111.157 120.713C109.934 122.396 108.209 123.649 106.23 124.292L75.0461 134.425C73.067 135.068 70.935 135.068 68.9558 134.425L37.7723 124.292C35.7931 123.649 34.0683 122.396 32.8451 120.713L13.5726 94.1864C12.3494 92.5028 11.6906 90.4752 11.6906 88.3941V55.6059C11.6906 53.5248 12.3494 51.4972 13.5726 49.8136L32.8451 23.2873C34.0683 21.6037 35.7931 20.3506 37.7723 19.7075L68.9558 9.57537Z" fill="#C4C4C4"/>
</mask>
<g mask="url(#mask0_1513_3896)">
<path d="M75.4842 133.878C73.5051 134.521 71.3731 134.521 69.3939 133.878L35.3259 122.809L51.9225 97.9146H92.4096L109.552 122.809L75.4842 133.878Z" fill="#D9D9D9"/>
<path d="M104.921 59.4091L72.1661 35.6114L72.4391 8.58594L106.507 19.6553C108.486 20.2984 110.211 21.5515 111.434 23.2351L132.489 52.2151L104.921 59.4091Z" fill="#D9D9D9"/>
<path d="M35.3259 122.809L14.2707 93.8286C13.0475 92.145 12.3887 90.1174 12.3887 88.0363V52.2151L39.411 59.4091L51.9225 97.9146L35.3259 122.809Z" fill="#F2F2F2"/>
<path d="M109.552 122.809L92.4096 97.9146L104.921 59.4091L132.489 52.2151V88.0363C132.489 90.1174 131.831 92.145 130.607 93.8286L109.552 122.809Z" fill="#F2F2F2"/>
<path d="M39.411 59.4091L12.3887 52.2151L33.4439 23.2351C34.6671 21.5515 36.3919 20.2984 38.371 19.6553L72.4391 8.58594L72.1661 35.6114L39.411 59.4091Z" fill="white"/>
<path d="M51.9225 97.9146H92.4096L104.921 59.4091L72.1661 35.6114L39.411 59.4091L51.9225 97.9146Z" fill="white"/>
<path d="M70.086 131.748L38.8288 121.592L53.1211 100.154H91.2326L106.005 121.606L74.7922 131.748C73.2628 132.245 71.6154 132.245 70.086 131.748ZM90.7825 95.675H53.5497L42.0438 60.2645L72.1661 38.3797L102.288 60.2645L90.7825 95.675ZM69.938 34.4618L38.957 56.9706L16.1193 50.8906L35.2558 24.5515C36.201 23.2506 37.5338 22.2822 39.0631 21.7853L70.1681 11.6787L69.938 34.4618ZM14.6283 88.0363V55.129L37.6575 61.2599L49.4573 97.5749L35.2469 118.89L16.0826 92.5122C15.1374 91.2112 14.6283 89.6444 14.6283 88.0363ZM74.4173 34.4786L74.6478 11.6585L105.815 21.7853C107.344 22.2822 108.677 23.2506 109.622 24.5515L128.749 50.8766L105.38 56.9746L74.4173 34.4786ZM106.672 61.2667L130.25 55.1141V88.0363C130.25 89.6444 129.741 91.2112 128.796 92.5122L109.601 118.931L94.8813 97.5551L106.672 61.2667Z" stroke="url(#paint0_linear_1513_3896)" stroke-opacity="0.25" stroke-width="4.47925" stroke-linejoin="round"/>
</g>
</g>
<defs>
<filter id="filter0_d_1513_3896" x="5.66867" y="2.37302" width="133.363" height="138.707" filterUnits="userSpaceOnUse" color-interpolation-filters="sRGB">
<feFlood flood-opacity="0" result="BackgroundImageFix"/>
<feColorMatrix in="SourceAlpha" type="matrix" values="0 0 0 0 0 0 0 0 0 0 0 0 0 0 0 0 0 0 127 0" result="hardAlpha"/>
<feOffset/>
<feGaussianBlur stdDeviation="3.36"/>
<feComposite in2="hardAlpha" operator="out"/>
<feColorMatrix type="matrix" values="0 0 0 0 0 0 0 0 0 0 0 0 0 0 0 0 0 0 0.5 0"/>
<feBlend mode="normal" in2="BackgroundImageFix" result="effect1_dropShadow_1513_3896"/>
<feBlend mode="normal" in="SourceGraphic" in2="effect1_dropShadow_1513_3896" result="shape"/>
</filter>
<linearGradient id="paint0_linear_1513_3896" x1="72.4391" y1="8.58594" x2="72.4391" y2="134.867" gradientUnits="userSpaceOnUse">
<stop stop-color="white"/>
<stop offset="1" stop-color="#D9D9D9"/>
</linearGradient>
</defs>
</svg>
