<svg width="144" height="144" viewBox="0 0 144 144" fill="none" xmlns="http://www.w3.org/2000/svg">
<g filter="url(#filter0_d_1513_3901)">
<path fill-rule="evenodd" clip-rule="evenodd" d="M29.3598 17.3325C22.7176 17.3325 17.333 22.7171 17.333 29.3593V114.64C17.333 121.283 22.7176 126.667 29.3598 126.667H114.641C121.283 126.667 126.668 121.283 126.668 114.64V29.3593C126.668 22.7171 121.283 17.3325 114.641 17.3325H29.3598ZM99.8806 18.9725H44.12C29.3598 18.9725 18.973 29.3593 18.973 44.1195V99.8801C18.973 114.64 29.3598 125.027 44.12 125.027H99.8806C114.641 125.027 124.481 114.64 124.481 100.973V44.1195C124.481 29.3593 114.641 18.9725 99.8806 18.9725Z" fill="url(#paint0_linear_1513_3901)"/>
<path d="M44.12 18.9725H99.8806C114.641 18.9725 124.481 29.3593 124.481 44.1195V100.973C124.481 114.64 114.641 125.027 99.8806 125.027H44.12C29.3598 125.027 18.973 114.64 18.973 99.8801V44.1195C18.973 29.3593 29.3598 18.9725 44.12 18.9725Z" fill="white"/>
<path d="M44.12 21.2122H99.8806C106.716 21.2122 112.265 23.6054 116.108 27.5697C119.957 31.5411 122.241 37.2439 122.241 44.1195V100.973C122.241 113.403 113.404 122.787 99.8806 122.787H44.12C37.2793 122.787 31.5797 120.39 27.5951 116.405C23.6105 112.42 21.2127 106.721 21.2127 99.8801V44.1195C21.2127 37.2788 23.6105 31.5793 27.5951 27.5946C31.5797 23.61 37.2793 21.2122 44.12 21.2122ZM29.3598 19.5721H31.2572C28.7001 20.8182 26.4034 22.4517 24.4278 24.4273C22.4522 26.4029 20.8187 28.6996 19.5726 31.2567V29.3593C19.5726 23.954 23.9545 19.5721 29.3598 19.5721ZM19.5726 114.64V112.743C20.8187 115.3 22.4522 117.597 24.4278 119.572C26.4034 121.548 28.7001 123.181 31.2572 124.427H29.3598C23.9545 124.427 19.5726 120.046 19.5726 114.64ZM114.641 124.427H112.686C118.012 121.808 122.077 117.524 124.428 112.197V114.64C124.428 120.046 120.046 124.427 114.641 124.427ZM124.428 29.3593V32.2212C123.192 29.2899 121.475 26.6712 119.324 24.4522C117.398 22.4646 115.147 20.8229 112.627 19.5721H114.641C120.046 19.5721 124.428 23.954 124.428 29.3593Z" stroke="url(#paint1_linear_1513_3901)" stroke-opacity="0.25" stroke-width="4.47925"/>
</g>
<defs>
<filter id="filter0_d_1513_3901" x="10.613" y="10.6125" width="122.775" height="122.775" filterUnits="userSpaceOnUse" color-interpolation-filters="sRGB">
<feFlood flood-opacity="0" result="BackgroundImageFix"/>
<feColorMatrix in="SourceAlpha" type="matrix" values="0 0 0 0 0 0 0 0 0 0 0 0 0 0 0 0 0 0 127 0" result="hardAlpha"/>
<feOffset/>
<feGaussianBlur stdDeviation="3.36"/>
<feComposite in2="hardAlpha" operator="out"/>
<feColorMatrix type="matrix" values="0 0 0 0 0 0 0 0 0 0 0 0 0 0 0 0 0 0 0.5 0"/>
<feBlend mode="normal" in2="BackgroundImageFix" result="effect1_dropShadow_1513_3901"/>
<feBlend mode="normal" in="SourceGraphic" in2="effect1_dropShadow_1513_3901" result="shape"/>
</filter>
<linearGradient id="paint0_linear_1513_3901" x1="21.7064" y1="22.2526" x2="131.861" y2="135.961" gradientUnits="userSpaceOnUse">
<stop stop-color="#FAFAFA"/>
<stop offset="0.755208" stop-color="#D9D9D9"/>
<stop offset="1" stop-color="white"/>
</linearGradient>
<linearGradient id="paint1_linear_1513_3901" x1="72.0003" y1="17.3325" x2="72.0003" y2="126.667" gradientUnits="userSpaceOnUse">
<stop stop-color="white"/>
<stop offset="1" stop-color="#D9D9D9"/>
</linearGradient>
</defs>
</svg>
