<svg width="144" height="144" viewBox="0 0 144 144" fill="none" xmlns="http://www.w3.org/2000/svg">
<g filter="url(#filter0_d_1513_3910)">
<mask id="mask0_1513_3910" style="mask-type:alpha" maskUnits="userSpaceOnUse" x="17" y="10" width="110" height="124">
<path d="M67.0731 11.7204C70.1221 9.96013 73.8785 9.96013 76.9275 11.7204L121.74 37.5932C124.789 39.3535 126.668 42.6067 126.668 46.1273V97.8729C126.668 101.393 124.789 104.647 121.74 106.407L76.9275 132.28C73.8785 134.04 70.1221 134.04 67.0731 132.28L22.2602 106.407C19.2112 104.647 17.333 101.393 17.333 97.8729V46.1273C17.333 42.6067 19.2112 39.3535 22.2602 37.5932L67.0731 11.7204Z" fill="white"/>
</mask>
<g mask="url(#mask0_1513_3910)">
<path d="M17.333 103.015H72.0003H126.668L72.0003 8.32886L17.333 103.015Z" fill="white"/>
<path d="M72.0003 134.578L126.668 103.015H72.0003H17.333L72.0003 134.578Z" fill="#F2F2F2"/>
<path fill-rule="evenodd" clip-rule="evenodd" d="M72.0003 8.32886L17.333 39.891V103.015L72.0003 8.32886Z" fill="#F2F2F2"/>
<path d="M126.668 39.891L72.0003 8.32886L126.668 103.015V39.891Z" fill="#D9D9D9"/>
<path d="M72.0003 100.776H21.2122L72.0003 12.8081L122.788 100.776H72.0003ZM72.0003 105.255H118.309L72.0003 131.992L25.6914 105.255H72.0003ZM124.428 94.657L78.1191 14.4476L124.428 41.1841V94.657ZM65.8815 14.4476L19.5726 94.657V41.1841L65.8815 14.4476Z" stroke="url(#paint0_linear_1513_3910)" stroke-opacity="0.25" stroke-width="4.47925"/>
</g>
</g>
<defs>
<filter id="filter0_d_1513_3910" x="10.613" y="3.68015" width="122.775" height="136.64" filterUnits="userSpaceOnUse" color-interpolation-filters="sRGB">
<feFlood flood-opacity="0" result="BackgroundImageFix"/>
<feColorMatrix in="SourceAlpha" type="matrix" values="0 0 0 0 0 0 0 0 0 0 0 0 0 0 0 0 0 0 127 0" result="hardAlpha"/>
<feOffset/>
<feGaussianBlur stdDeviation="3.36"/>
<feComposite in2="hardAlpha" operator="out"/>
<feColorMatrix type="matrix" values="0 0 0 0 0 0 0 0 0 0 0 0 0 0 0 0 0 0 0.5 0"/>
<feBlend mode="normal" in2="BackgroundImageFix" result="effect1_dropShadow_1513_3910"/>
<feBlend mode="normal" in="SourceGraphic" in2="effect1_dropShadow_1513_3910" result="shape"/>
</filter>
<linearGradient id="paint0_linear_1513_3910" x1="72.0003" y1="8.32886" x2="72.0003" y2="134.578" gradientUnits="userSpaceOnUse">
<stop stop-color="white"/>
<stop offset="1" stop-color="#D9D9D9"/>
</linearGradient>
</defs>
</svg>
